name new_emg_signals
nRows=45
nColumns=7
 
endheader
time	RGLTMED	RRF	RADDLONG	RBF	RTA	RGM
2.259999999999952	0.9772075300869272	0.8196221535468551	0.2453541338956847	0.9091412035646744	0.7406352100069497	0.8955186729308148
2.2699999999999516	0.9755512816624564	0.8191034756632053	0.2464564140151316	0.9107332559609708	0.7352789029521194	0.8937174879096951
2.2799999999999514	0.9738643628925364	0.8185322100862485	0.2476975572545643	0.9123836337255	0.7300012276487631	0.8919195724358746
2.289999999999953	0.9721495250020664	0.8179052023202502	0.2490799851286753	0.9140909803665852	0.7248057485853605	0.8901280061895135
2.299999999999951	0.9704094365323672	0.8172193565561364	0.2506060254490119	0.9158537255767492	0.7196958188419693	0.888345805455283
2.3099999999999508	0.9686466765087188	0.8164716485658896	0.2522779072396954	0.9176700878058768	0.7146745795207462	0.8865759152203935
2.3199999999999505	0.9668637280363136	0.8156591385802467	0.2540977557399496	0.9195380775612374	0.7097449597545503	0.8848212017123888
2.3299999999999503	0.9650629723312316	0.8147789840933944	0.2560675874984323	0.9214555014172946	0.7049096772715044	0.8830844453946622
2.33999999999995	0.96324668319224	0.8138284525367376	0.2581893055643223	0.9234199667152094	0.7001712394924923	0.881368334434325
2.34999999999995	0.9614170219180984	0.812804933761944	0.260464694780177	0.9254288869296482	0.6955319451381314	0.8796754586542987
2.3599999999999497	0.9595760326737176	0.8117059522724009	0.262895417182132	0.9274794876789983	0.6909938863218316	0.8780083039784685
2.3699999999999495	0.9577256383074856	0.8105291791418003	0.2654830075138077	0.9295688133541534	0.6865589511056112	0.8763692473763179
2.3799999999999475	0.9558676366210592	0.8092724435591792	0.2682288688610577	0.9316937343408908	0.6822288264955427	0.874760552310751
2.389999999999949	0.9540036970929264	0.8079337439409244	0.2711342684153672	0.9338509548113444	0.6780050018535222	0.8731843646901547
2.399999999999949	0.9521353580586986	0.8065112585512977	0.2742003333740129	0.9360370210614468	0.6738887727022048	0.871642709323092
2.4099999999999486	0.950264024354174	0.8050033555735433	0.2774280469853739	0.9382483303720792	0.6698812449000792	0.8701374868709757
2.4199999999999484	0.9483909654300574	0.8034086025739212	0.280818244748241	0.940481140371674	0.6659833391642643	0.8686704712913924
2.429999999999948	0.946517313948192	0.8017257753014763	0.2843716107744575	0.9427315788762743	0.6621957959189284	0.8672433077620818
2.439999999999948	0.9446440648681744	0.7999538657674031	0.2880886743248442	0.9449956541812772	0.6585191804470188	0.865857511073272
2.4499999999999478	0.94277207503148	0.7980920895504059	0.2919698065289426	0.9472692657767096	0.6549538883220702	0.8645144644740076
2.4599999999999476	0.940902063247944	0.7961398922789364	0.2960152172996635	0.9495482154568928	0.6515001510960219	0.8632154189562324
2.4699999999999473	0.9390346108875548	0.7940969552477746	0.3002249524542886	0.9518282187938676	0.6481580422185793	0.8619614929586655
2.479999999999949	0.9371701629784358	0.7919632001346011	0.3045988910533336	0.9541049169432516	0.6449274831638656	0.8607536724711257
2.4899999999999487	0.935309029810182	0.7897387927911996	0.3091367429686982	0.95637388875019	0.6418082497410648	0.8595928115189948
2.4999999999999467	0.9334513890398836	0.7874241460939518	0.3138380466923567	0.9586306631228398	0.6387999785669971	0.8584796330079671
2.5099999999999465	0.9315972882962746	0.7850199218488464	0.318702167396491	0.9608707316410257	0.6359021736799457	0.8574147299118671
2.5199999999999463	0.9297466482752698	0.7825270317569684	0.3237282952553675	0.963089561367528	0.6331142132755985	0.8563985667918147
2.529999999999946	0.9278992663182276	0.7799466374550127	0.3289154440385339	0.9652826078289458	0.630435356547553	0.8554314816407018
2.539999999999946	0.9260548204628356	0.7772801496504242	0.3342624499840366	0.9674453281311988	0.6278647506167067	0.8545136880515756
2.549999999999944	0.9242128739562744	0.774529226372807	0.3397679709595467	0.9695731941724042	0.6254014375354008	0.8536452777099572
2.5599999999999437	0.922372880220559	0.7716957703638112	0.3454304859184045	0.9716617059128492	0.6230443613530285	0.8528262232095976
2.5699999999999434	0.9205341882602394	0.7687819256289206	0.3512482946566863	0.973706404658471	0.620792375230005	0.8520563811893861
2.579999999999945	0.9186960485019552	0.7657900731777748	0.3572195178766465	0.9757028863110038	0.6186442485865891	0.8513354957872333
2.589999999999945	0.9168576190535136	0.7627228259846754	0.3633420975609007	0.9776468145344048	0.6165986742727719	0.8506632024045011
2.5999999999999446	0.9150179723674124	0.7595830232059881	0.3696137976607992	0.979533933783913	0.6146542757450534	0.8500390317731117
2.6099999999999444	0.9131761022904936	0.7563737236950879	0.3760322051014684	0.9813600821405696	0.6128096142356649	0.8494624143164295
2.619999999999944	0.9113309314782284	0.7530981988568205	0.3825947311050287	0.9831212038912596	0.6110631958992695	0.8489326847938709
2.629999999999944	0.9094813191490466	0.7497599248832877	0.3892986128326847	0.9848133617922964	0.6094134789213551	0.8484490872177636
2.6399999999999437	0.9076260691510646	0.7463625744116267	0.3961409153455099	0.9864327489553828	0.6078588805715174	0.8480107800292793
2.6499999999999435	0.9057639383107786	0.7429100076429733	0.4031185338828497	0.987975700297134	0.6063977841833263	0.8476168415181381
2.659999999999945	0.9038936450304172	0.7394062629607303	0.410228196456343	0.9894387034976664	0.6050285460407586	0.8472662754688498
2.669999999999945	0.9020138780983592	0.7358555470844748	0.4174664667566851	0.9908184094177692	0.603749502149162	0.846958017014573
2.6799999999999446	0.900123305674606	0.7322622247945495	0.4248297473691237	0.9921116419273974	0.6025589748669958	0.8466909386774156
2.6899999999999427	0.8982205844110477	0.7286308082609472	0.4323142832927307	0.9933154071008188	0.6014552793730308	0.8464638565723746
2.6999999999999424	0.8963043686636774	0.7249659460091504	0.439916165757318	0.9944269017365596	0.6004367299426172	0.8462755367500332
